<?xml version="1.0" encoding="UTF-8" standalone="no"?>
<svg
   width="800"
   height="190.803"
   version="1.1"
   id="svg1"
   sodipodi:docname="AMD_Logo.svg"
   inkscape:version="1.3.2 (091e20e, 2023-11-25, custom)"
   xmlns:inkscape="http://www.inkscape.org/namespaces/inkscape"
   xmlns:sodipodi="http://sodipodi.sourceforge.net/DTD/sodipodi-0.dtd"
   xmlns="http://www.w3.org/2000/svg"
   xmlns:svg="http://www.w3.org/2000/svg">
  <defs
     id="defs1" />
  <sodipodi:namedview
     id="namedview1"
     pagecolor="#ffffff"
     bordercolor="#000000"
     borderopacity="0.25"
     inkscape:showpageshadow="2"
     inkscape:pageopacity="0.0"
     inkscape:pagecheckerboard="0"
     inkscape:deskcolor="#d1d1d1"
     showgrid="false"
     inkscape:zoom="2.4875"
     inkscape:cx="400"
     inkscape:cy="95.276382"
     inkscape:window-width="2560"
     inkscape:window-height="1494"
     inkscape:window-x="-11"
     inkscape:window-y="-11"
     inkscape:window-maximized="1"
     inkscape:current-layer="svg1" />
  <path
     d="M187.888 178.122H143.52l-13.573-32.738H56.003l-12.366 32.738H0L66.667 12.776h47.761zM91.155 52.286L66.912 116.53h50.913zm257.901-39.51h35.88v165.346h-41.219V74.842l-44.608 51.877h-6.301l-44.605-51.877V178.12h-41.219V12.776h35.88l53.092 61.336zm140.319 0c60.364 0 91.391 37.573 91.391 82.909 0 47.517-30.058 82.437-96 82.437h-68.369V12.776zm-31.762 135.041h26.906c41.457 0 53.823-28.129 53.823-52.377 0-28.368-15.276-52.363-54.308-52.363h-26.422v104.74zm205.156-95.836L610.797 0H800v189.21l-51.972-51.975V51.981zm-.061 10.416L609.2 115.903v74.899h74.889l53.505-53.506h-74.886z"
     id="path1" />
  <path
     style="fill:#000000;stroke-width:0.40201"
     d="M 0.5799684,177.39045 C 0.72664052,177.00158 15.706479,139.8227 33.868498,94.770714 l 33.021854,-81.912705 23.713805,0.103659 23.713803,0.103659 36.50936,82.210685 c 20.08015,45.215878 36.50936,82.346528 36.50936,82.512558 0,0.16604 -9.81407,0.29852 -21.80904,0.29441 l -21.80905,-0.007 -6.81022,-16.47701 -6.81022,-16.47701 -37.164015,0.10257 -37.164016,0.10257 -6.141616,16.28141 -6.141621,16.28141 -21.586794,0.10401 c -20.4571041,0.0986 -21.57284024,0.067 -21.3201196,-0.60301 z M 116.33028,112.26131 C 115.33427,109.88442 109.34582,95.457286 103.02261,80.201005 96.699401,64.944724 91.465206,52.386935 91.391071,52.294807 c -0.07413,-0.09213 -0.237885,-0.06441 -0.363887,0.06159 -0.200889,0.20089 -24.293516,63.769483 -24.293516,64.098643 0,0.0703 11.566694,0.12787 25.703763,0.12787 h 25.703759 z"
     id="path2" />
  <path
     style="fill:#000000;stroke-width:0.40201"
     d="M 0.57733962,177.39045 C 0.72256587,177.00158 15.700801,139.8227 33.862306,94.770714 l 33.020918,-81.912708 23.715791,0.103661 23.715795,0.10366 36.51093,82.187216 c 20.08102,45.202967 36.51094,82.333627 36.51094,82.512567 0,0.17894 -9.81407,0.32419 -21.80904,0.32279 l -21.80905,-0.003 -6.80903,-16.48193 -6.80903,-16.48192 -37.164647,0.10257 -37.164643,0.10257 -6.137793,16.28141 -6.137793,16.28141 -21.59118,0.10401 c -20.4604408,0.0986 -21.5773538,0.067 -21.32713438,-0.60301 z M 117.69821,115.87733 c -0.19265,-0.73669 -26.075106,-63.289617 -26.308473,-63.582523 -0.0734,-0.09213 -0.231373,-0.06958 -0.351052,0.05009 -0.182351,0.182351 -24.304619,63.837873 -24.304916,64.137513 -5.6e-5,0.0553 11.508434,0.1005 25.574424,0.1005 24.187247,0 25.564517,-0.0383 25.390017,-0.70558 z"
     id="path3" />
  <path
     style="fill:#000000;stroke-width:0.40201"
     d="M 0.5758008,177.39045 C 0.7201807,177.00158 15.69449,139.8227 33.852044,94.77071 l 33.013733,-81.912711 23.722247,0.103664 23.722246,0.103664 36.51321,82.173258 c 20.08226,45.195285 36.5132,82.325945 36.5132,82.512565 0,0.18661 -9.81451,0.3393 -21.81003,0.3393 h -21.81004 l -6.81835,-16.48448 -6.81834,-16.48448 -37.139208,0.10257 -37.139208,0.10257 -6.153231,16.28141 -6.153226,16.28141 -21.590879,0.10401 c -20.4596518,0.0986 -21.57712233,0.067 -21.3283672,-0.60301 z M 117.78894,116.23842 c 0,-0.34414 -24.243899,-58.945785 -25.802512,-62.369073 L 91.162774,52.060302 90.578633,53.43233 C 90.257359,54.186947 84.863666,68.387952 78.592651,84.990119 72.321636,101.59229 67.068599,115.49246 66.919228,115.8794 c -0.2569,0.66549 1.110617,0.70351 25.299067,0.70351 14.063855,0 25.570645,-0.15502 25.570645,-0.34449 z"
     id="path4" />
  <path
     style="fill:#ffffff;stroke-width:0.40201;fill-opacity:1"
     d="m 0.40201005,177.88853 c 0,-0.11489 11.68785295,-29.19687 25.97300695,-64.6266 C 40.660169,77.832189 55.609568,40.747319 59.595904,30.851106 l 7.247879,-17.993116 23.754336,0.103669 23.754331,0.103668 12.31867,27.738693 c 6.77527,15.256282 23.12883,52.070352 36.34124,81.80905 13.21242,29.73869 24.11157,54.38693 24.22034,54.77386 0.1866,0.66382 -1.03616,0.70352 -21.66837,0.70352 h -21.86612 l -6.80974,-16.48448 -6.80975,-16.48448 -37.135114,0.10257 -37.135116,0.10257 -6.150323,16.28141 -6.150328,16.28141 -21.552914,0.10399 c -11.854103,0.0572 -21.55291495,0.01 -21.55291495,-0.10491 z M 117.55654,116.23171 C 117.77147,115.88394 91.91791,53.164141 91.308358,52.554591 90.968784,52.215016 66.741616,115.77629 67.018094,116.28141 c 0.2336,0.42677 50.274376,0.37757 50.538446,-0.0497 z"
     id="path5" />
  <path
     style="fill:#ffffff;fill-opacity:1;stroke-width:0.40201"
     d="M 207.03518,95.477387 V 12.864322 h 17.79108 17.79108 l 26.53053,30.724881 c 14.59178,16.898684 26.62097,30.736751 26.73153,30.751255 0.11055,0.0145 12.1407,-13.798046 26.73367,-30.694559 l 26.53266,-30.720935 17.78894,-0.03032 17.78895,-0.03032 v 82.613065 82.613061 h -20.501 -20.50099 l -0.10202,-51.70031 -0.10202,-51.700305 -22.31156,25.976415 -22.31156,25.97642 -2.99534,-0.10526 -2.99534,-0.10525 -22.13029,-25.80087 C 258.60185,86.440808 248.50754,74.817692 248.34171,74.802143 c -0.16583,-0.01555 -0.30151,23.217958 -0.30151,51.630017 v 51.65829 h -20.50251 -20.50251 z"
     id="path6" />
  <path
     style="fill:#ffffff;fill-opacity:1;stroke-width:0.40201"
     d="M 416.48241,95.477387 V 12.864322 l 37.88945,0.004 c 37.54864,0.0039 45.3789,0.213487 53.56784,1.433539 31.52736,4.697197 54.9242,21.469971 65.84862,47.205702 4.15506,9.788474 6.22887,19.588659 6.59286,31.155779 1.07004,34.004868 -13.4259,60.294628 -40.789,73.974688 -13.34108,6.66982 -28.3048,10.16741 -47.33087,11.06304 -4.20101,0.19776 -22.96985,0.36628 -41.70855,0.37448 l -34.07035,0.0149 z m 83.07273,51.120803 c 21.3413,-4.63036 34.12437,-17.97327 37.99931,-39.66352 1.15889,-6.48698 1.14633,-16.820362 -0.0285,-23.459595 -3.85967,-21.811549 -17.13057,-35.044946 -39.63648,-39.524487 -2.56597,-0.510725 -6.97456,-0.676347 -21.80905,-0.81932 l -18.59296,-0.179197 v 52.52821 52.528209 l 18.59296,-0.17555 c 18.2539,-0.17236 18.68199,-0.19487 23.47474,-1.23475 z"
     id="path7" />
  <path
     style="fill:#ffffff;fill-opacity:1;stroke-width:0.40201"
     d="M 609.44724,153.26519 V 115.97762 L 635.9799,89.447236 662.51256,62.916857 v 37.285293 37.28529 h 37.28529 37.28529 l -26.53038,26.53266 -26.53038,26.53266 h -37.28757 -37.28757 z"
     id="path8" />
  <path
     style="fill:#ffffff;fill-opacity:1;stroke-width:0.40201"
     d="M 773.96868,162.71241 748.1407,136.8821 V 94.370702 51.859296 H 705.62697 663.11324 L 637.18593,25.929648 611.25862,0 H 705.62931 800 v 94.271357 c 0,51.849243 -0.0457,94.271353 -0.10167,94.271353 -0.0559,0 -11.72426,-11.62363 -25.92965,-25.8303 z"
     id="path9" />
</svg>
