<svg xmlns="http://www.w3.org/2000/svg" fill="none" viewBox="0 0 96 96" id="Pinecone--Streamline-Svg-Logos" version="1.1" xmlns:xlink="http://www.w3.org/1999/xlink">
  <desc>
    Pinecone Streamline Icon: https://streamlinehq.com
  </desc>
  <path fill="#000000" d="M22.1895 42.7985h4.8633c3.5194 0 4.4109 2.1223 4.4109 3.852 0 1.7298 -0.9114 3.8521 -4.4109 3.8521h-3.0005v6.0675h-1.8628V42.7985Zm1.8628 1.6366v4.4309h2.4549c1.477 0 2.954 -0.346 2.954 -2.2155 0 -1.8694 -1.477 -2.2154 -2.954 -2.2154h-2.4549Zm9.8464 -1.7032c0.703 0.0005 1.2749 0.5662 1.2831 1.2691 0.0082 0.7029 -0.5504 1.2818 -1.2532 1.2986 -0.7028 0.0169 -1.2884 -0.5346 -1.3139 -1.2371 -0.0108 -0.348 0.1195 -0.6856 0.3613 -0.9362 0.2418 -0.2505 0.5745 -0.3927 0.9227 -0.3944Zm-0.8582 4.6172h1.7297v9.221h-1.7297v-9.221Zm3.7323 0h1.7497v1.4237h0.0399c0.61 -1.0881 1.7886 -1.7317 3.0338 -1.6566 1.7897 0 3.3265 1.0712 3.3265 3.5195v5.9344h-1.7298V51.128c0 -1.7364 -0.9913 -2.3751 -2.1023 -2.3751 -1.457 0 -2.5681 0.9314 -2.5681 3.0737v4.7435h-1.7497v-9.221Zm11.3566 5.2559c0 1.61 1.497 2.6611 3.1136 2.6611 1.0142 -0.0294 1.9534 -0.5411 2.5282 -1.3771l1.3306 1.0112c-0.9662 1.2745 -2.5012 1.9872 -4.0983 1.9028 -2.861 0 -4.6687 -2.011 -4.7413 -4.676l-0.0023 -0.1674c-0.0515 -1.2822 0.4283 -2.5289 1.3262 -3.4457 0.8979 -0.9169 2.1344 -1.4225 3.4174 -1.3977 3.2467 0 4.4908 2.4883 4.4908 4.8634v0.6254h-7.3649Zm5.5353 -1.4038c-0.0399 -1.5369 -0.8981 -2.6612 -2.6612 -2.6612 -1.5078 -0.0103 -2.7622 1.1566 -2.8608 2.6612h5.522Zm9.7732 -1.3971c-0.5696 -0.6734 -1.4135 -1.0526 -2.2952 -1.0313 -1.9028 0 -2.8808 1.5369 -2.8808 3.2667 -0.0479 0.8181 0.2455 1.6196 0.8104 2.2134 0.5648 0.5939 1.3506 0.927 2.1702 0.9201 0.8662 0.029 1.6952 -0.3534 2.2354 -1.0312l1.2441 1.2308c-0.9053 0.9583 -2.1825 1.4755 -3.4995 1.4171 -1.2946 0.0651 -2.5566 -0.4193 -3.4751 -1.334 -0.9185 -0.9147 -1.4081 -2.1746 -1.3483 -3.4695 -0.0585 -1.2999 0.4295 -2.5649 1.3458 -3.4888 0.9163 -0.9239 2.1773 -1.4223 3.4776 -1.3745 1.3322 -0.0338 2.6171 0.4951 3.5394 1.457l-1.324 1.2242Zm6.4601 -2.6879c2.6641 0.044 4.7924 2.2315 4.7632 4.8958 -0.0291 2.6643 -2.2048 4.8047 -4.8692 4.7905 -2.6644 -0.0146 -4.8169 -2.1784 -4.8172 -4.8429 -0.0002 -1.2985 0.521 -2.5427 1.4467 -3.4533 0.8769 -0.8627 2.0472 -1.3576 3.2719 -1.3891l0.2046 -0.001Zm0 8.0568c1.8628 0 3.0337 -1.3306 3.0337 -3.2134s-1.1709 -3.2067 -3.0337 -3.2067 -3.0404 1.3306 -3.0404 3.2067c0 1.824 1.1068 3.1387 2.8862 3.2103l0.1542 0.0031Zm6.3203 -7.8239h1.7498v1.4237c0.6122 -1.0892 1.7932 -1.7327 3.0404 -1.6566 1.7896 0 3.3265 1.0712 3.3265 3.5195v5.9344h-1.7498V51.128c0 -1.7364 -0.9913 -2.3751 -2.0957 -2.3751 -1.4636 0 -2.568 0.9314 -2.568 3.0737v4.7435h-1.7032v-9.221Zm11.3766 5.2559c0 1.61 1.4969 2.6611 3.1136 2.6611 1.0133 -0.0326 1.9512 -0.5435 2.5281 -1.3771l1.3306 1.0112c-0.967 1.2639 -2.4958 1.9686 -4.0849 1.8828 -2.8545 0 -4.6684 -2.011 -4.7413 -4.6759l-0.0023 -0.1674c-0.0518 -1.2858 0.4307 -2.5358 1.333 -3.4532 0.9024 -0.9175 2.1441 -1.4207 3.4306 -1.3902 3.2533 0 4.4974 2.4882 4.4974 4.8633v0.6254l-7.4048 0.02Zm5.522 -1.4038c-0.0399 -1.5369 -0.8915 -2.6612 -2.6612 -2.6612 -1.5091 -0.0136 -2.7654 1.1551 -2.8608 2.6612h5.522Z" stroke-width="1"></path>
  <path fill="#201d1e" d="M8.16529 55.3066c0.59891 0 1.08443 0.4855 1.08443 1.0844s-0.48552 1.0845 -1.08443 1.0845c-0.59892 0 -1.08444 -0.4856 -1.08444 -1.0845s0.48552 -1.0844 1.08444 -1.0844Zm6.01641 -1.9786 1.0717 0.3175 -0.8507 2.871c-0.0743 0.2509 -0.3127 0.4166 -0.5738 0.3988l-0.2627 -0.018 -0.0065 0.0053 -2.73 -0.1916 0.076 -1.1151 1.8342 0.1245 -1.2008 -1.7322 0.9185 -0.6369 1.2024 1.7344 0.5217 -1.7577ZM2.51788 51.3432l1.1149 0.079 -0.13059 1.8339 1.72904 -1.2023 0.63828 0.9175 -1.7313 1.2036 1.76716 0.5207 -0.31587 1.0721 -2.88458 -0.8498c-0.25183 -0.0742 -0.41807 -0.3137 -0.39951 -0.5756l0.21247 -2.9991Zm7.19859 -1.5616 2.01223 2.4294 -0.9069 0.7511 -1.19754 -1.4457 -0.38825 2.2229 -1.15999 -0.2028 0.38863 -2.2264 -1.6122 0.9506 -0.59772 -1.0146 2.70944 -1.5962c0.24909 -0.1468 0.56788 -0.0909 0.7523 0.1317Zm5.62973 -1.6299 1.0052 -0.5469 1.4643 2.6914c0.1283 0.2358 0.0754 0.529 -0.1271 0.7052l-0.2072 0.179 -2.114 1.8397 -0.7509 -0.8634 1.4212 -1.2365 -2.1169 -0.3813 0.2031 -1.1262 2.1154 0.3812 -0.8931 -1.6422ZM3.49205 45.3379l0.7572 0.8579 -1.40172 1.2363 2.12097 0.3703 -0.19659 1.1273 -2.1233 -0.3706 0.91203 1.6488 -1.00131 0.5539 -1.48781 -2.6895c-0.129895 -0.2348 -0.079141 -0.5283 0.12206 -0.7059l2.29847 -2.0285Zm7.16925 -0.8852 2.0054 2.4229 -0.9071 0.7508 -1.1973 -1.4464 -0.3882 2.2236 -1.16001 -0.2028 0.3873 -2.2177 -1.60602 0.9414 -0.59545 -1.0159 2.46692 -1.4464 0.00243 -0.0094 0.01088 0.0014 0.22988 -0.134c0.24907 -0.146 0.56727 -0.0899 0.75127 0.1325Zm2.5842 -1.1915 0.4386 -1.057 2.8371 1.1774c0.2476 0.1027 0.3907 0.3637 0.3442 0.6277l-0.0473 0.2626 -0.4844 2.7558 -1.127 -0.1985 0.3247 -1.8447 -1.8822 1.0402 -0.5531 -1.0017 1.8858 -1.0411 -1.7364 -0.7207Zm-5.40451 -2.0828 0.04878 1.1433 -1.87409 0.0801 1.41347 1.6153 -0.86118 0.7535 -1.41584 -1.6177 -0.32987 1.8469 -1.12644 -0.2015 0.53984 -3.0182c0.04718 -0.2637 0.27111 -0.4594 0.53883 -0.4709l0.2652 -0.0118 0.00595 -0.0043 2.79535 -0.1147Zm3.83361 -2.4382 1.9963 2.4382 -0.9111 0.746 -1.1849 -1.4473 -0.3996 2.2206 -1.159 -0.2086 0.4003 -2.2256 -1.61769 0.9458 -0.59411 -1.0167 2.7172 -1.5877c0.25 -0.1461 0.5691 -0.0887 0.7526 0.1353Z" stroke-width="1"></path>
</svg>
