<svg xmlns="http://www.w3.org/2000/svg" fill="none" viewBox="0 0 96 96">
  <desc>
    Mistral Ai Streamline Icon: https://streamlinehq.com
  </desc>
  <path fill="#000" d="M40.816 38.177h2.051l.847 3.061.29 1.194h.053l.287-1.194.85-3.06h2.052v8.636h-1.654v-2.813c.015-1.022.174-2.982.262-3.873h-.04l-.663 2.319-.673 2.08h-.948l-.685-2.08-.618-2.319h-.046l.021.207c.1 1.009.241 2.9.241 3.805v2.674h-1.627zm8.175 6.998h2.018v-5.359H48.99v-1.639h5.991v1.64h-2.017v5.358h2.017v1.64H48.99zm7.642.551 1.122-1.342c.654.534 1.46.9 2.298.9.83 0 1.213-.32 1.213-.743 0-.622-.514-.772-1.331-1.114l-1.126-.48c-.958-.364-1.832-1.098-1.832-2.355 0-1.43 1.29-2.574 3.167-2.574 1.04 0 2.09.39 2.87 1.13l-.985 1.233c-.61-.437-1.148-.675-1.992-.675-.644 0-1.081.267-1.081.772 0 .52.579.71 1.408 1.02l1.057.448c1.132.424 1.846 1.13 1.846 2.348 0 1.436-1.205 2.68-3.344 2.68a4.98 4.98 0 0 1-3.29-1.248m10.288-5.91h-2.59v-1.639h7.136v1.64h-2.59v6.997h-1.956zm7.836-.088h.954c1.027 0 1.578.287 1.578 1.14 0 .846-.551 1.288-1.578 1.288h-.954zm4.864 7.086-1.954-3.455c.922-.417 1.54-1.222 1.54-2.49 0-2.035-1.477-2.68-3.282-2.692h-3.128v8.637h1.96v-3.107h1.027l1.65 3.107zm3.246-3.577.205-.796.67-2.785h.053c.149.651.325 1.353.494 2.015l.4 1.566zm2.734 3.577h2.074l-2.692-8.637h-2.344l-2.692 8.637h2.002l.527-2.054h2.6zm3.601-8.637h1.952v6.998h3.847v1.64h-5.799zM43.087 57.093l.205-.796.67-2.786h.053c.148.651.325 1.354.494 2.016l.399 1.566zm2.733 3.58h2.074l-2.692-8.64h-2.345l-2.693 8.64h2.002l.528-2.055h2.602zm3.17-1.642h2.019v-5.36H48.99v-1.639h5.991v1.64h-2.017v5.359h2.017v1.639H48.99zm7.731 2.499h6.401v1.488h-6.401zM29.21 32.982h-5.642v5.642h5.642z"/>
  <path fill="#f7d046" d="M32.032 32.982H26.39v5.642h5.642z"/>
  <path fill="#000" d="M6.642 32.982H1v5.642h5.642zm0 5.642H1v5.642h5.642z"/>
  <path fill="#000" d="M6.642 44.266H1v5.642h5.642zm0 5.642H1v5.642h5.642z"/>
  <path fill="#000" d="M6.642 55.55H1v5.643h5.642z"/>
  <path fill="#f7d046" d="M9.463 32.982H3.821v5.642h5.642z"/>
  <path fill="#f2a73b" d="M32.032 38.624H26.39v5.642h5.642zm-22.569 0H3.821v5.642h5.642z"/>
  <path fill="#000" d="M23.568 38.624h-5.642v5.642h5.642z"/>
  <path fill="#f2a73b" d="M26.39 38.624h-5.642v5.642h5.642zm-11.284 0H9.462v5.642h5.643z"/>
  <path fill="#ee792f" d="M20.748 44.266h-5.643v5.642h5.642zm5.642 0h-5.642v5.642h5.642z"/>
  <path fill="#ee792f" d="M15.106 44.266H9.462v5.642h5.643z"/>
  <path fill="#000" d="M17.926 49.908h-5.642v5.642h5.642z"/>
  <path fill="#eb5829" d="M20.748 49.908h-5.643v5.642h5.642z"/>
  <path fill="#ee792f" d="M32.032 44.266H26.39v5.642h5.642zm-22.569 0H3.821v5.642h5.642z"/>
  <path fill="#000" d="M29.21 49.908h-5.642v5.642h5.642z"/>
  <path fill="#eb5829" d="M32.032 49.908H26.39v5.642h5.642z"/>
  <path fill="#000" d="M29.21 55.55h-5.642v5.643h5.642z"/>
  <path fill="#eb5829" d="M9.463 49.908H3.821v5.642h5.642z"/>
  <path fill="#ea3326" d="M32.032 55.55H26.39v5.643h5.642zm-22.569 0H3.821v5.643h5.642z"/>
</svg>
