<svg xmlns="http://www.w3.org/2000/svg" fill="none" viewBox="0 0 96 96" id="Vultr--Streamline-Svg-Logos"><desc>Vultr Streamline Icon: https://streamlinehq.com</desc><path fill="#142149" d="m94.9055 53.0731 -2.3633 -4.0757c1.6052 -0.6845 2.5072 -2.4038 2.1582 -4.1135 -0.349 -1.7097 -1.8528 -2.9379 -3.5977 -2.9386h-5.1858c-0.1721 -0.0007 -0.3374 0.0674 -0.4591 0.1891 -0.1218 0.1217 -0.1898 0.287 -0.1891 0.4592v10.8036c0 0.358 0.2902 0.6482 0.6482 0.6482h0.4322c0.358 0 0.6482 -0.2902 0.6482 -0.6482v-4.1054h3.7812l2.5713 4.4295c0.1159 0.2007 0.3301 0.3243 0.5618 0.3241h0.4402c0.2317 0.0002 0.4458 -0.1233 0.5617 -0.3239s0.116 -0.4478 0.0001 -0.6484h-0.0081Zm-7.9082 -9.3992h4.1054c1.074 0 1.9446 0.8707 1.9446 1.9447s-0.8706 1.9446 -1.9446 1.9446h-4.1054v-3.8893Zm-5.4018 -1.7286c0.1719 0 0.3368 0.0683 0.4583 0.1899 0.1094 0.1094 0.1757 0.2539 0.1878 0.407l0.0021 0.0514v0.4321c0 0.3431 -0.2666 0.6239 -0.6039 0.6467l-0.0443 0.0015h-3.6733v9.7233c-0.0014 0.3425 -0.2672 0.6225 -0.6039 0.6465l-0.0443 0.0017h-0.4321c-0.3431 0 -0.624 -0.2665 -0.6468 -0.6038l-0.0015 -0.0444v-9.7233h-3.6732c-0.1721 0.0008 -0.3374 -0.0673 -0.4591 -0.189 -0.1096 -0.1096 -0.1757 -0.2544 -0.1873 -0.4078l-0.0018 -0.0514v-0.4321c-0.0007 -0.1722 0.0673 -0.3375 0.1891 -0.4592 0.1095 -0.1095 0.2544 -0.1756 0.4077 -0.1872l0.0514 -0.0019h9.0751Zm-15.9894 0c0.1721 -0.0007 0.3374 0.0674 0.4591 0.1891 0.1096 0.1096 0.1757 0.2544 0.1873 0.4078l0.0018 0.0514v9.7232h5.834c0.1721 -0.0007 0.3374 0.0674 0.4591 0.1891 0.1096 0.1095 0.1757 0.2544 0.1873 0.4078l0.0018 0.0514v0.4321c0 0.3431 -0.2666 0.6239 -0.6039 0.6467l-0.0443 0.0015h-6.9144c-0.343 0 -0.6239 -0.2665 -0.6467 -0.6038l-0.0015 -0.0444V42.5936c-0.0007 -0.1722 0.0674 -0.3375 0.1891 -0.4592 0.1095 -0.1095 0.2544 -0.1756 0.4077 -0.1872l0.0514 -0.0019h0.4322Zm-4.5375 0.6483c0.0007 -0.1722 -0.0674 -0.3375 -0.1891 -0.4592 -0.1217 -0.1217 -0.287 -0.1898 -0.4591 -0.1891h-0.4322c-0.1721 -0.0007 -0.3374 0.0674 -0.4592 0.1891 -0.1217 0.1217 -0.1897 0.287 -0.189 0.4592v6.6982c0 1.79 -1.4511 3.2411 -3.2411 3.2411 -1.79 0 -3.2411 -1.4511 -3.2411 -3.2411v-6.6982c0 -0.358 -0.2902 -0.6483 -0.6482 -0.6483h-0.4322c-0.1721 -0.0007 -0.3374 0.0674 -0.4591 0.1891 -0.1217 0.1217 -0.1898 0.287 -0.1891 0.4592v6.6982c0 2.7447 2.225 4.9697 4.9697 4.9697 2.7447 0 4.9697 -2.225 4.9697 -4.9697v-6.6982Zm-13.1805 -0.6483h-0.4078c-0.2658 -0.0016 -0.5051 0.1605 -0.6023 0.4079l-3.7435 9.3559 -3.7434 -9.3559c-0.0972 -0.2474 -0.3365 -0.4095 -0.6023 -0.4079h-0.4079c-0.215 0 -0.4162 0.1065 -0.5368 0.2846 -0.1207 0.178 -0.1452 0.4043 -0.0655 0.604l4.3215 10.8037c0.0978 0.2469 0.3368 0.4087 0.6023 0.4078h0.8643c0.2655 0.0009 0.5045 -0.1609 0.6023 -0.4078l4.3214 -10.8037c0.0798 -0.1997 0.0553 -0.426 -0.0654 -0.604 -0.1207 -0.1781 -0.3218 -0.2846 -0.5369 -0.2846Z" stroke-width="1"></path><path fill="#c9f4ff" d="M10.0344 37.3638c-0.23664 -0.3773 -0.65111 -0.606 -1.09653 -0.605H2.29634c-0.47218 0 -0.90701 0.2568 -1.13508 0.6702 -0.228071 0.4135 -0.213317 0.9182 0.03851 1.3177l1.35046 2.1607 8.83467 -1.3829 -1.3505 -2.1607Z" stroke-width="1"></path><path fill="#51b9ff" d="M11.3953 39.524c-0.2367 -0.3774 -0.6512 -0.606 -1.0966 -0.6051H3.65718c-0.47218 0 -0.90701 0.2568 -1.13508 0.6703 -0.22807 0.4134 -0.21332 0.9182 0.03851 1.3176l1.90684 3.025 8.83465 -1.3828 -1.9068 -3.025Z" stroke-width="1"></path><path fill="#007bfc" d="M4.46793 43.9332c-0.12987 -0.2073 -0.19911 -0.4468 -0.19986 -0.6914 0 -0.716 0.58043 -1.2965 1.29643 -1.2965h6.6415c0.4454 -0.001 0.8599 0.2277 1.0966 0.605l5.942 9.4262c0.2664 0.4225 0.2664 0.9604 0 1.3829l-3.3194 5.2775c-0.2375 0.3765 -0.6515 0.6049 -1.0966 0.6049 -0.4451 0 -0.8591 -0.2284 -1.0966 -0.6049L4.46793 43.9332Z" stroke-width="1"></path><path fill="#007bfc" d="M21.2163 46.7522c0.2367 0.3801 0.6528 0.6113 1.1006 0.6113s0.864 -0.2312 1.1006 -0.6113l1.1344 -1.8097 2.1769 -3.4544c0.2664 -0.4225 0.2664 -0.9604 0 -1.3829l-1.7285 -2.7414c-0.2367 -0.3773 -0.6512 -0.606 -1.0966 -0.605h-6.6415c-0.4722 0 -0.907 0.2568 -1.1351 0.6702 -0.2281 0.4135 -0.2133 0.9182 0.0385 1.3177l5.0507 8.0055Z" stroke-width="1"></path></svg>
