<svg width="100" height="100" viewBox="0 0 512 512" xmlns="http://www.w3.org/2000/svg">
  <circle cx="256" cy="256" r="200" fill="orange" fill-opacity="0.5" />
  <g>
    <path d="M509.575,70.8c-3.2-3.2-8-3.2-11.2,0l-108.4,108c-2-0.4-4.4-1.6-7.6-2.8c-2.4-1.2-5.2-2.8-7.6-4.8l112.4-112.4
			c3.2-3.2,3.2-8,0-11.2s-8-3.2-11.2,0l-114,113.6c-2-1.6-4-3.6-6-5.6s-4-4-5.6-6L463.975,36c3.2-3.2,3.2-8,0-11.2s-8-3.2-11.2,0
			l-112,112.4c-4-6-6.8-11.6-7.6-15.2l108.4-108.4c3.2-3.2,3.2-8,0-11.2c-3.2-3.2-8-3.2-11.2,0l-111.6,111.2
			c-10.8,10.8-16.4,24.8-16.4,39.6c0,6.4,1.2,12.4,3.2,18l-296.4,288c-12,12-12.4,32,0,44c5.6,6,13.6,8.8,21.6,8.8s16-3.2,22.4-9.2
			l282.4-298.4c7.2,3.2,15.2,5.2,23.2,5.2c14.4,0,28.8-5.6,39.6-16.4L509.575,82C512.775,78.8,512.775,74,509.575,70.8z" fill="white"/>
  </g>
</svg>
